<?xml version="1.0" encoding="UTF-8"?>
<svg xmlns="http://www.w3.org/2000/svg" xmlns:xlink="http://www.w3.org/1999/xlink" width="25px" height="25px" viewBox="0 0 25 25" version="1.1">
<defs>
<linearGradient id="linear0" gradientUnits="userSpaceOnUse" x1="-0.00828" y1="0.07652" x2="0.57636" y2="0.78411" gradientTransform="matrix(24.734375,0,0,21.863281,0.0859375,2.75)">
<stop offset="0" style="stop-color:rgb(25.490196%,81.960784%,100%);stop-opacity:1;"/>
<stop offset="1" style="stop-color:rgb(74.117647%,20.392157%,99.607843%);stop-opacity:1;"/>
</linearGradient>
<linearGradient id="linear1" gradientUnits="userSpaceOnUse" x1="0.43376" y1="0.02242" x2="0.50316" y2="0.8903" gradientTransform="matrix(11.382812,0,0,20.664063,8.59375,0.0078125)">
<stop offset="0" style="stop-color:rgb(100%,91.764706%,51.372549%);stop-opacity:1;"/>
<stop offset="0.08333" style="stop-color:rgb(100%,86.666667%,20.784314%);stop-opacity:1;"/>
<stop offset="1" style="stop-color:rgb(100%,65.882353%,0%);stop-opacity:1;"/>
</linearGradient>
</defs>
<g id="surface1">
<path style=" stroke:none;fill-rule:nonzero;fill:url(#linear0);" d="M 24.820312 3.691406 L 13.125 24.609375 C 12.882812 25.039062 12.261719 25.042969 12.015625 24.613281 L 0.0859375 3.691406 C -0.179688 3.222656 0.21875 2.65625 0.75 2.75 L 12.460938 4.84375 C 12.535156 4.859375 12.613281 4.859375 12.6875 4.84375 L 24.152344 2.753906 C 24.683594 2.660156 25.085938 3.222656 24.820312 3.691406 Z M 24.820312 3.691406 "/>
<path style=" stroke:none;fill-rule:nonzero;fill:url(#linear1);" d="M 18.039062 0.0078125 L 9.382812 1.703125 C 9.242188 1.730469 9.136719 1.851562 9.125 1.996094 L 8.59375 10.988281 C 8.589844 11.089844 8.628906 11.1875 8.707031 11.25 C 8.78125 11.316406 8.886719 11.339844 8.984375 11.316406 L 11.394531 10.761719 C 11.617188 10.710938 11.824219 10.910156 11.777344 11.136719 L 11.058594 14.640625 C 11.011719 14.878906 11.234375 15.078125 11.464844 15.007812 L 12.953125 14.558594 C 13.183594 14.488281 13.40625 14.6875 13.355469 14.925781 L 12.21875 20.433594 C 12.148438 20.777344 12.605469 20.964844 12.796875 20.671875 L 12.925781 20.472656 L 19.976562 6.394531 C 20.097656 6.160156 19.894531 5.890625 19.632812 5.941406 L 17.152344 6.417969 C 16.921875 6.464844 16.722656 6.246094 16.789062 6.019531 L 18.40625 0.40625 C 18.472656 0.175781 18.273438 -0.0390625 18.039062 0.0078125 Z M 18.039062 0.0078125 "/>
</g>
</svg>
