<?xml version="1.0" encoding="UTF-8"?>
<svg xmlns="http://www.w3.org/2000/svg" xmlns:xlink="http://www.w3.org/1999/xlink" width="27px" height="25px" viewBox="0 0 27 25" version="1.1">
<defs>
<filter id="alpha" filterUnits="objectBoundingBox" x="0%" y="0%" width="100%" height="100%">
  <feColorMatrix type="matrix" in="SourceGraphic" values="0 0 0 0 1 0 0 0 0 1 0 0 0 0 1 0 0 0 1 0"/>
</filter>
<mask id="mask0">
  <g filter="url(#alpha)">
<rect x="0" y="0" width="27" height="25" style="fill:rgb(0%,0%,0%);fill-opacity:0.301961;stroke:none;"/>
  </g>
</mask>
<clipPath id="clip1">
  <rect x="0" y="0" width="27" height="25"/>
</clipPath>
<g id="surface5" clip-path="url(#clip1)">
<path style=" stroke:none;fill-rule:nonzero;fill:rgb(26.666667%,26.666667%,26.666667%);fill-opacity:1;" d="M 15.242188 17.738281 L 11.289062 14.621094 L 12.164062 14.621094 Z M 11.074219 7.894531 L 14.183594 11.042969 L 15.242188 11.042969 Z M 11.074219 7.894531 "/>
</g>
</defs>
<g id="surface1">
<path style=" stroke:none;fill-rule:nonzero;fill:rgb(100%,100%,100%);fill-opacity:1;" d="M 6.746094 21.921875 L 2.089844 13.742188 C 1.660156 12.988281 1.660156 12.054688 2.089844 11.296875 L 6.746094 3.125 C 7.179688 2.363281 7.980469 1.898438 8.84375 1.898438 L 18.15625 1.898438 C 19.019531 1.898438 19.820312 2.363281 20.25 3.125 L 24.910156 11.300781 C 25.339844 12.058594 25.339844 12.992188 24.910156 13.746094 L 20.253906 21.925781 C 19.820312 22.683594 19.019531 23.152344 18.15625 23.152344 L 8.847656 23.152344 C 7.980469 23.148438 7.183594 22.679688 6.746094 21.921875 Z M 6.746094 21.921875 "/>
<path style=" stroke:none;fill-rule:nonzero;fill:rgb(48.627451%,30.196078%,100%);fill-opacity:1;" d="M 7.144531 21.367188 L 2.765625 13.675781 C 2.355469 12.960938 2.355469 12.082031 2.765625 11.371094 L 7.144531 3.679688 C 7.554688 2.964844 8.308594 2.527344 9.117188 2.527344 L 17.882812 2.527344 C 18.691406 2.527344 19.449219 2.964844 19.855469 3.679688 L 24.238281 11.367188 C 24.648438 12.082031 24.648438 12.960938 24.238281 13.671875 L 19.855469 21.367188 C 19.449219 22.082031 18.695312 22.523438 17.882812 22.523438 L 9.121094 22.523438 C 8.308594 22.523438 7.554688 22.082031 7.144531 21.367188 Z M 7.144531 21.367188 "/>
<path style=" stroke:none;fill-rule:nonzero;fill:rgb(96.862745%,96.862745%,96.862745%);fill-opacity:1;" d="M 9.085938 11.042969 L 18.101562 11.042969 C 18.214844 11.042969 18.304688 10.949219 18.304688 10.835938 L 18.304688 9.125 C 18.304688 7.988281 17.394531 7.066406 16.269531 7.066406 L 10.859375 7.066406 C 9.28125 7.0625 8.007812 8.355469 8.007812 9.949219 C 8.003906 10.554688 8.488281 11.042969 9.085938 11.042969 Z M 9.972656 18.601562 L 15.359375 18.601562 C 16.984375 18.601562 18.304688 17.265625 18.304688 15.617188 C 18.304688 15.070312 17.867188 14.621094 17.320312 14.621094 L 8.203125 14.621094 C 8.089844 14.621094 8.007812 14.714844 8.007812 14.820312 L 8.007812 16.609375 C 8.003906 17.710938 8.886719 18.601562 9.972656 18.601562 Z M 9.972656 18.601562 "/>
<path style=" stroke:none;fill-rule:nonzero;fill:rgb(96.862745%,96.862745%,96.862745%);fill-opacity:1;" d="M 8.40625 10.816406 L 15.128906 17.621094 C 15.574219 18.074219 16.296875 18.074219 16.742188 17.621094 L 17.90625 16.441406 C 18.351562 15.992188 18.351562 15.261719 17.90625 14.8125 L 11.183594 8.007812 C 10.738281 7.554688 10.019531 7.554688 9.574219 8.007812 L 8.410156 9.1875 C 7.960938 9.636719 7.960938 10.367188 8.40625 10.816406 Z M 8.40625 10.816406 "/>
<use xlink:href="#surface5" mask="url(#mask0)"/>
</g>
</svg>
